<svg width="33" height="26" viewBox="0 0 33 26" fill="none" xmlns="http://www.w3.org/2000/svg">
<path d="M31.7593 3.85037C31.91 4.37084 32 5.01635 32 5.82744C32 9.13829 32 17.9655 32 20.7241C32 23.4827 30.5 24.0345 29.5 24.5862C28.5 25.1379 4 25.1379 3 24.5862C2.24366 24.1689 1.48732 23.7516 1.16365 22.3795M31.7593 3.85037C31.2951 2.2463 30.255 1.82982 29.5 1.41362C28.5 0.862367 4 0.861888 3 1.41362C2 1.96534 1 2.51707 1 5.82744C1 9.13781 1 17.9655 1 20.7241C1 21.3963 1.05937 21.9374 1.16365 22.3795M31.7593 3.85037C31.7593 3.85037 26.2964 9.05633 22.4322 12.4484M1 3.85037C1 3.85037 7.09289 9.05633 11.1383 12.4484M1.16365 22.3795L11.1383 12.4484M11.1383 12.4484C12.7701 13.8167 14.0688 14.8898 14.5 15.207C16 16.3105 17 16.3105 19 15.207C19.5749 14.8898 20.8735 13.8167 22.4322 12.4484M22.4322 12.4484L31.5 22.3795" stroke="#F4F4F4" stroke-width="2"/>
</svg>
