<svg width="36" height="36" viewBox="0 0 36 36" fill="none" xmlns="http://www.w3.org/2000/svg">
<g clip-path="url(#clip0_6_20)">
<path d="M32.3429 35.582L25.0513 35.582C24.6488 35.582 24.3221 35.2554 24.3221 34.8529C24.3221 34.4504 24.6488 34.1237 25.0513 34.1237L32.3429 34.1237C33.549 34.1237 34.5304 33.1422 34.5304 31.9362L34.5304 4.22786C34.5304 3.02182 33.549 2.04036 32.3429 2.04036L4.6346 2.04036C3.42856 2.04036 2.4471 3.02182 2.4471 4.22786L2.4471 31.9362C2.4471 33.1422 3.42856 34.1237 4.6346 34.1237H17.7596C18.1621 34.1237 18.4888 34.4504 18.4888 34.8529C18.4888 35.2554 18.1621 35.582 17.7596 35.582H4.6346C2.62502 35.582 0.98877 33.9458 0.98877 31.9362L0.98877 4.22786C0.98877 2.21828 2.62502 0.582031 4.6346 0.582031L32.3429 0.582031C34.3525 0.582031 35.9888 2.21828 35.9888 4.22786L35.9888 31.9362C35.9888 33.9458 34.3525 35.582 32.3429 35.582Z" fill="black"/>
<path d="M25.0513 35.5817C24.6488 35.5817 24.3221 35.255 24.3221 34.8525L24.3221 24.6442C24.3221 24.2417 24.6488 23.915 25.0513 23.915L28.8561 23.915L29.9498 19.54H25.0513C24.6488 19.54 24.3221 19.2134 24.3221 18.8109V14.4359C24.3221 13.2298 25.3036 12.2484 26.5096 12.2484H28.6971V7.87337H25.3181C21.5527 7.87337 18.4888 10.9373 18.4888 14.7027V18.8109C18.4888 19.2134 18.1621 19.54 17.7596 19.54H14.1138V23.915H17.7596C18.1621 23.915 18.4888 24.2417 18.4888 24.6442L18.4888 34.8525C18.4888 35.255 18.1621 35.5817 17.7596 35.5817C17.3571 35.5817 17.0304 35.255 17.0304 34.8525L17.0304 25.3734H13.3846C12.9821 25.3734 12.6554 25.0467 12.6554 24.6442V18.8109C12.6554 18.4084 12.9821 18.0817 13.3846 18.0817H17.0304V14.7027C17.0304 10.1323 20.7477 6.41504 25.3181 6.41504H29.4263C29.8288 6.41504 30.1554 6.74171 30.1554 7.14421V12.9775C30.1554 13.38 29.8288 13.7067 29.4263 13.7067H26.5096C26.1071 13.7067 25.7804 14.0334 25.7804 14.4359V18.0817H30.8846C31.1092 18.0817 31.3206 18.1852 31.4592 18.3617C31.5977 18.5382 31.6458 18.7686 31.5919 18.9873L30.1336 24.8207C30.0519 25.1459 29.7602 25.3734 29.4263 25.3734L25.7804 25.3734L25.7804 34.8525C25.7804 35.255 25.4538 35.5817 25.0513 35.5817Z" fill="black"/>
</g>
<defs>
<clipPath id="clip0_6_20">
<rect width="35" height="35" fill="white" transform="translate(0.98877 0.582031)"/>
</clipPath>
</defs>
</svg>
