<svg width="36" height="36" viewBox="0 0 36 36" fill="none" xmlns="http://www.w3.org/2000/svg">
<g clip-path="url(#clip0_6_20)">
<path d="M32.3429 35.3887L25.0513 35.3887C24.6488 35.3887 24.3221 35.062 24.3221 34.6595C24.3221 34.257 24.6488 33.9303 25.0513 33.9303L32.3429 33.9303C33.549 33.9303 34.5304 32.9489 34.5304 31.7428L34.5304 4.03451C34.5304 2.82846 33.549 1.84701 32.3429 1.84701L4.6346 1.84701C3.42856 1.84701 2.4471 2.82846 2.4471 4.03451L2.4471 31.7428C2.4471 32.9489 3.42856 33.9303 4.6346 33.9303H17.7596C18.1621 33.9303 18.4888 34.257 18.4888 34.6595C18.4888 35.062 18.1621 35.3887 17.7596 35.3887H4.6346C2.62502 35.3887 0.98877 33.7524 0.98877 31.7428L0.98877 4.03451C0.98877 2.02492 2.62502 0.388672 4.6346 0.388672L32.3429 0.388672C34.3525 0.388672 35.9888 2.02492 35.9888 4.03451L35.9888 31.7428C35.9888 33.7524 34.3525 35.3887 32.3429 35.3887Z" fill="#F8F8F8"/>
<path d="M25.0513 35.3883C24.6488 35.3883 24.3221 35.0617 24.3221 34.6592L24.3221 24.4508C24.3221 24.0483 24.6488 23.7217 25.0513 23.7217L28.8561 23.7217L29.9498 19.3467H25.0513C24.6488 19.3467 24.3221 19.02 24.3221 18.6175V14.2425C24.3221 13.0365 25.3036 12.055 26.5096 12.055H28.6971V7.68001H25.3182C21.5527 7.68001 18.4888 10.744 18.4888 14.5094V18.6175C18.4888 19.02 18.1621 19.3467 17.7596 19.3467H14.1138V23.7217H17.7596C18.1621 23.7217 18.4888 24.0483 18.4888 24.4508L18.4888 34.6592C18.4888 35.0617 18.1621 35.3883 17.7596 35.3883C17.3571 35.3883 17.0305 35.0617 17.0305 34.6592L17.0305 25.18H13.3846C12.9821 25.18 12.6555 24.8533 12.6555 24.4508V18.6175C12.6555 18.215 12.9821 17.8883 13.3846 17.8883H17.0305V14.5094C17.0305 9.93897 20.7477 6.22168 25.3182 6.22168H29.4263C29.8288 6.22168 30.1555 6.54835 30.1555 6.95085V12.7842C30.1555 13.1867 29.8288 13.5133 29.4263 13.5133H26.5096C26.1071 13.5133 25.7805 13.84 25.7805 14.2425V17.8883H30.8846C31.1092 17.8883 31.3207 17.9919 31.4592 18.1683C31.5977 18.3448 31.6459 18.5752 31.5919 18.794L30.1336 24.6273C30.0519 24.9525 29.7602 25.18 29.4263 25.18L25.7805 25.18L25.7805 34.6592C25.7805 35.0617 25.4538 35.3883 25.0513 35.3883Z" fill="#F8F8F8"/>
</g>
<defs>
<clipPath id="clip0_6_20">
<rect width="35" height="35" fill="white" transform="translate(0.98877 0.388672)"/>
</clipPath>
</defs>
</svg>
