<svg width="36" height="35" viewBox="0 0 36 35" fill="none" xmlns="http://www.w3.org/2000/svg">
<path d="M33.7793 35L22.1126 35C21.7101 35 21.3834 34.6733 21.3834 34.2708V24.7917L15.5501 24.7917V34.2708C15.5501 34.6733 15.2234 35 14.8209 35H3.15428C2.75178 35 2.42511 34.6733 2.42511 34.2708L2.42511 0.729167C2.42511 0.326667 2.75178 0 3.15428 0L10.4459 0C10.8484 0 11.1751 0.326667 11.1751 0.729167V7.48417L33.9966 14.6169C34.3014 14.7117 34.5084 14.9931 34.5084 15.3125L34.5084 34.2708C34.5084 34.6733 34.1818 35 33.7793 35ZM22.8418 33.5417L33.0501 33.5417V15.8492L10.2287 8.71646C9.92386 8.62167 9.71678 8.34021 9.71678 8.02083V1.45833L3.88344 1.45833L3.88344 33.5417H14.0918V24.0625C14.0918 23.66 14.4184 23.3333 14.8209 23.3333L22.1126 23.3333C22.5151 23.3333 22.8418 23.66 22.8418 24.0625V33.5417Z" fill="#F8F8F8"/>
</svg>
