<svg width="36" height="36" viewBox="0 0 36 36" fill="none" xmlns="http://www.w3.org/2000/svg">
<g clip-path="url(#clip0_6_23)">
<path d="M33.7793 35.1943L22.1126 35.1943C21.7101 35.1943 21.3834 34.8677 21.3834 34.4652V24.986L15.5501 24.986V34.4652C15.5501 34.8677 15.2234 35.1943 14.8209 35.1943H3.15428C2.75178 35.1943 2.42511 34.8677 2.42511 34.4652L2.42511 0.923503C2.42511 0.521003 2.75178 0.194336 3.15428 0.194336L10.4459 0.194336C10.8484 0.194336 11.1751 0.521003 11.1751 0.923503V7.6785L33.9966 14.8112C34.3014 14.906 34.5084 15.1875 34.5084 15.5068L34.5084 34.4652C34.5084 34.8677 34.1818 35.1943 33.7793 35.1943ZM22.8418 33.736L33.0501 33.736V16.0435L10.2287 8.9108C9.92386 8.816 9.71678 8.53454 9.71678 8.21517V1.65267L3.88344 1.65267L3.88344 33.736H14.0918V24.2568C14.0918 23.8543 14.4184 23.5277 14.8209 23.5277L22.1126 23.5277C22.5151 23.5277 22.8418 23.8543 22.8418 24.2568V33.736Z" fill="black"/>
</g>
<defs>
<clipPath id="clip0_6_23">
<rect width="35" height="35" fill="white" transform="translate(0.966797 0.194336)"/>
</clipPath>
</defs>
</svg>
