<svg width="35" height="36" viewBox="0 0 35 36" fill="none" xmlns="http://www.w3.org/2000/svg">
<g clip-path="url(#clip0_6_17)">
<path d="M28.4375 35.582H6.5625C2.94438 35.582 0 32.6377 0 29.0195L0 7.14453C0 3.52641 2.94438 0.582031 6.5625 0.582031L28.4375 0.582031C32.0556 0.582031 35 3.52641 35 7.14453V29.0195C35 32.6377 32.0556 35.582 28.4375 35.582ZM6.5625 2.04036C3.74792 2.04036 1.45833 4.32995 1.45833 7.14453L1.45833 29.0195C1.45833 31.8341 3.74792 34.1237 6.5625 34.1237H28.4375C31.2521 34.1237 33.5417 31.8341 33.5417 29.0195V7.14453C33.5417 4.32995 31.2521 2.04036 28.4375 2.04036L6.5625 2.04036Z" fill="#F8F8F8"/>
<path d="M17.5 26.8317C12.6744 26.8317 8.75 22.9073 8.75 18.0817C8.75 13.2561 12.6744 9.33171 17.5 9.33171C22.3256 9.33171 26.25 13.2561 26.25 18.0817C26.25 22.9073 22.3256 26.8317 17.5 26.8317ZM17.5 10.79C13.4794 10.79 10.2083 14.0611 10.2083 18.0817C10.2083 22.1023 13.4794 25.3734 17.5 25.3734C21.5206 25.3734 24.7917 22.1023 24.7917 18.0817C24.7917 14.0611 21.5206 10.79 17.5 10.79ZM26.9792 10.79C25.7731 10.79 24.7917 9.80858 24.7917 8.60254C24.7917 7.3965 25.7731 6.41504 26.9792 6.41504C28.1852 6.41504 29.1667 7.3965 29.1667 8.60254C29.1667 9.80858 28.1852 10.79 26.9792 10.79ZM26.9792 7.87337C26.5767 7.87337 26.25 8.20004 26.25 8.60254C26.25 9.00504 26.5767 9.33171 26.9792 9.33171C27.3817 9.33171 27.7083 9.00504 27.7083 8.60254C27.7083 8.20004 27.3817 7.87337 26.9792 7.87337Z" fill="#F8F8F8"/>
</g>
<defs>
<clipPath id="clip0_6_17">
<rect width="35" height="35" fill="white" transform="translate(0 0.582031)"/>
</clipPath>
</defs>
</svg>
