<svg width="35" height="36" viewBox="0 0 35 36" fill="none" xmlns="http://www.w3.org/2000/svg">
<g clip-path="url(#clip0_6_17)">
<path d="M28.4375 35.7764H6.5625C2.94438 35.7764 0 32.832 0 29.2139L0 7.33887C0 3.72074 2.94438 0.776367 6.5625 0.776367L28.4375 0.776367C32.0556 0.776367 35 3.72074 35 7.33887V29.2139C35 32.832 32.0556 35.7764 28.4375 35.7764ZM6.5625 2.2347C3.74792 2.2347 1.45833 4.52428 1.45833 7.33887L1.45833 29.2139C1.45833 32.0285 3.74792 34.318 6.5625 34.318H28.4375C31.2521 34.318 33.5417 32.0285 33.5417 29.2139V7.33887C33.5417 4.52428 31.2521 2.2347 28.4375 2.2347L6.5625 2.2347Z" fill="black"/>
<path d="M17.5 27.026C12.6744 27.026 8.75 23.1017 8.75 18.276C8.75 13.4504 12.6744 9.52604 17.5 9.52604C22.3256 9.52604 26.25 13.4504 26.25 18.276C26.25 23.1017 22.3256 27.026 17.5 27.026ZM17.5 10.9844C13.4794 10.9844 10.2083 14.2554 10.2083 18.276C10.2083 22.2967 13.4794 25.5677 17.5 25.5677C21.5206 25.5677 24.7917 22.2967 24.7917 18.276C24.7917 14.2554 21.5206 10.9844 17.5 10.9844ZM26.9792 10.9844C25.7731 10.9844 24.7917 10.0029 24.7917 8.79688C24.7917 7.59083 25.7731 6.60938 26.9792 6.60938C28.1852 6.60938 29.1667 7.59083 29.1667 8.79688C29.1667 10.0029 28.1852 10.9844 26.9792 10.9844ZM26.9792 8.06771C26.5767 8.06771 26.25 8.39437 26.25 8.79688C26.25 9.19937 26.5767 9.52604 26.9792 9.52604C27.3817 9.52604 27.7083 9.19937 27.7083 8.79688C27.7083 8.39437 27.3817 8.06771 26.9792 8.06771Z" fill="black"/>
</g>
<defs>
<clipPath id="clip0_6_17">
<rect width="35" height="35" fill="white" transform="translate(0 0.776367)"/>
</clipPath>
</defs>
</svg>
