<svg width="35" height="35" viewBox="0 0 35 35" fill="none" xmlns="http://www.w3.org/2000/svg">
<path d="M8.53902 34.4852H26.461C27.5962 34.4852 28.5198 33.5616 28.5198 32.4264V2.57347C28.5198 1.43825 27.5962 0.514648 26.461 0.514648H8.53902C7.4038 0.514648 6.48019 1.43825 6.48019 2.57347V5.54333C6.48019 5.56822 6.48195 5.59259 6.48547 5.61647V27.298C6.48195 27.3221 6.48019 27.3467 6.48019 27.3718V32.4264C6.48019 33.5616 7.4038 34.4852 8.53902 34.4852ZM7.50961 27.4457C7.51313 27.4216 7.51488 27.397 7.51488 27.3718V5.54333C7.51488 5.51845 7.51312 5.49408 7.50961 5.4702V2.57347C7.50961 2.00574 7.97128 1.54406 8.53902 1.54406H26.461C27.0287 1.54406 27.4904 2.00574 27.4904 2.57347V32.4264C27.4904 32.9941 27.0287 33.4558 26.461 33.4558H8.53902C7.97128 33.4558 7.50961 32.9942 7.50961 32.4264V27.4457Z" fill="#F4F4F4"/>
<path d="M9.25628 27.8861H25.7482C26.0325 27.8861 26.2629 27.6557 26.2629 27.3714V5.53915C26.2629 5.2549 26.0325 5.02445 25.7482 5.02445H9.25628C8.97204 5.02445 8.74158 5.2549 8.74158 5.53915V27.3714C8.74158 27.6557 8.97204 27.8861 9.25628 27.8861ZM9.77099 6.05386H25.2335V26.8567H9.77099V6.05386ZM15.4433 3.79699H19.561C19.8452 3.79699 20.0757 3.56653 20.0757 3.28228C20.0757 2.99804 19.8452 2.76758 19.561 2.76758H15.4433C15.1591 2.76758 14.9286 2.99804 14.9286 3.28228C14.9286 3.56653 15.1591 3.79699 15.4433 3.79699ZM17.5021 28.6102C16.3669 28.6102 15.4433 29.5338 15.4433 30.669C15.4433 31.8042 16.3669 32.7278 17.5021 32.7278C18.6374 32.7278 19.561 31.8042 19.561 30.669C19.561 29.5338 18.6374 28.6102 17.5021 28.6102ZM17.5021 31.6984C16.9344 31.6984 16.4727 31.2367 16.4727 30.669C16.4727 30.1013 16.9344 29.6396 17.5021 29.6396C18.0699 29.6396 18.5315 30.1013 18.5315 30.669C18.5315 31.2367 18.0699 31.6984 17.5021 31.6984Z" fill="#F4F4F4"/>
</svg>
