<svg width="36" height="36" viewBox="0 0 36 36" fill="none" xmlns="http://www.w3.org/2000/svg">
<g clip-path="url(#clip0_6_15)">
<path d="M33.8926 28.4613H30.2249C28.9226 28.4613 28.2518 27.7248 27.142 26.5042C26.6943 26.0142 26.1459 25.4104 25.4153 24.6886C23.9512 23.2958 22.8603 22.555 22.2726 22.555C22.188 22.555 22.1282 22.5579 22.0874 22.5608C22.0174 22.8715 22.0247 23.7246 22.0349 24.6958C22.0393 25.1611 22.0437 25.6992 22.0437 26.3233C22.0437 28.0967 20.7034 28.4613 18.6924 28.4613C14.3772 28.4613 9.97303 25.8669 6.90907 21.5211C2.47282 15.38 0.978027 10.4013 0.978027 9.07418C0.978027 7.9571 1.70136 7.31689 2.96428 7.31689L6.63344 7.31689C8.16615 7.31689 8.64594 8.29251 8.97553 9.20543C10.7693 14.3811 13.4016 17.9263 14.2693 18.3681C14.2868 18.2515 14.3028 18.0604 14.3028 17.7527L14.3028 12.4123C14.2343 11.1683 13.8172 10.6579 13.4497 10.2058C13.1668 9.86022 12.8474 9.46939 12.8474 8.87585C12.8474 8.1248 13.4847 7.31543 14.5114 7.31543L20.2776 7.31543C21.0826 7.31543 22.0407 7.67418 22.0407 9.37897V16.5583C22.0407 16.6765 22.0524 16.764 22.0684 16.8267C22.2537 16.7436 22.5424 16.5146 23.098 15.9663C25.5976 13.2056 27.4264 8.83647 27.4439 8.79272C27.8566 7.82439 28.6397 7.31543 29.713 7.31543H33.3807C34.1376 7.31543 34.6859 7.5371 35.0097 7.97314C35.2241 8.26043 35.4297 8.77376 35.1876 9.58751C35.1862 9.59189 35.1847 9.59626 35.1832 9.6021C34.6641 11.7342 30.9162 17.1111 30.1564 18.1086L30.1593 18.11C30.0937 18.2136 29.9216 18.4877 29.9201 18.5606C29.9201 18.5606 29.9289 18.6481 30.1155 18.8844C30.1184 18.8888 30.1228 18.8946 30.1272 18.899C30.2059 18.9938 30.432 19.2183 30.7455 19.5348C34.3184 23.1267 36.5614 25.8479 35.8964 27.4463C35.7009 27.91 35.1978 28.4613 33.8926 28.4613ZM22.2741 21.0967C23.0076 21.0967 24.0737 21.4 26.4332 23.6415C27.1959 24.3954 27.7618 25.0167 28.2226 25.5227C29.2901 26.6952 29.5949 27.0029 30.2278 27.0029H33.8955C34.3432 27.0029 34.5241 26.914 34.5518 26.8819C34.6553 26.6515 34.6232 25.5023 29.7116 20.5629C29.328 20.1765 29.0612 19.8979 28.9678 19.7842C28.1555 18.7502 28.4676 18.0633 28.9241 17.3356C28.9591 17.2773 29.0043 17.2263 29.0539 17.1811C29.6328 16.3658 33.3968 10.9598 33.7745 9.22439C33.7818 9.19085 33.792 9.15731 33.8037 9.12522C33.8547 8.9371 33.8387 8.85105 33.8357 8.83501H33.8343C33.8212 8.83501 33.7045 8.77376 33.3807 8.77376H29.713C29.1516 8.77376 28.9387 9.0071 28.7884 9.3571C28.7126 9.53939 26.8445 13.999 24.1495 16.974C23.1957 17.919 22.6547 18.3273 21.8964 18.3273C21.243 18.3273 20.5824 17.7192 20.5824 16.5583V9.37897C20.5824 8.92251 20.5037 8.8073 20.4978 8.80001C20.4949 8.80001 20.4366 8.77376 20.2776 8.77376H14.5099C14.3509 8.77376 14.3072 8.85689 14.3043 8.87876C14.3043 8.94876 14.437 9.1121 14.5784 9.28418C15.0101 9.81355 15.6634 10.6142 15.7612 12.3715L15.7626 17.7513C15.7626 18.4381 15.7626 19.8658 14.3553 19.8658C12.2787 19.8658 9.04261 13.8502 7.60032 9.69251C7.28386 8.81751 7.11615 8.77522 6.63344 8.77522H2.96428C2.43636 8.77522 2.43636 8.85689 2.43636 9.07418C2.43636 9.65897 3.48053 14.2848 8.09615 20.6738C10.8918 24.6404 14.8526 27.0029 18.6939 27.0029C20.5868 27.0029 20.5868 26.7186 20.5868 26.3233C20.5868 25.705 20.5824 25.1698 20.578 24.709C20.5591 22.7315 20.5518 21.9906 21.0462 21.4919C21.3918 21.1448 21.8409 21.0967 22.2741 21.0967Z" fill="black"/>
</g>
<defs>
<clipPath id="clip0_6_15">
<rect width="35" height="35" fill="white" transform="translate(0.978027 0.388672)"/>
</clipPath>
</defs>
</svg>
