<svg width="36" height="36" viewBox="0 0 36 36" fill="none" xmlns="http://www.w3.org/2000/svg">
<g clip-path="url(#clip0_6_15)">
<path d="M33.8926 28.2669H30.2249C28.9226 28.2669 28.2518 27.5305 27.142 26.3098C26.6943 25.8198 26.1459 25.2161 25.4153 24.4942C23.9512 23.1015 22.8603 22.3607 22.2726 22.3607C22.188 22.3607 22.1282 22.3636 22.0874 22.3665C22.0174 22.6771 22.0247 23.5303 22.0349 24.5015C22.0393 24.9667 22.0437 25.5048 22.0437 26.129C22.0437 27.9023 20.7034 28.2669 18.6924 28.2669C14.3772 28.2669 9.97303 25.6726 6.90907 21.3267C2.47282 15.1857 0.978027 10.2069 0.978027 8.87984C0.978027 7.76276 1.70136 7.12255 2.96428 7.12255L6.63344 7.12255C8.16615 7.12255 8.64594 8.09818 8.97553 9.01109C10.7693 14.1867 13.4016 17.7319 14.2693 18.1738C14.2868 18.0571 14.3028 17.8661 14.3028 17.5584L14.3028 12.218C14.2343 10.974 13.8172 10.4636 13.4497 10.0115C13.1668 9.66589 12.8474 9.27505 12.8474 8.68151C12.8474 7.93047 13.4847 7.12109 14.5114 7.12109L20.2776 7.12109C21.0826 7.12109 22.0407 7.47984 22.0407 9.18464V16.364C22.0407 16.4821 22.0524 16.5696 22.0684 16.6323C22.2537 16.5492 22.5424 16.3203 23.098 15.7719C25.5976 13.0113 27.4264 8.64214 27.4439 8.59839C27.8566 7.63005 28.6397 7.12109 29.713 7.12109H33.3807C34.1376 7.12109 34.6859 7.34276 35.0097 7.7788C35.2241 8.06609 35.4297 8.57943 35.1876 9.39318C35.1862 9.39755 35.1847 9.40193 35.1832 9.40776C34.6641 11.5398 30.9162 16.9167 30.1564 17.9142L30.1593 17.9157C30.0937 18.0192 29.9216 18.2934 29.9201 18.3663C29.9201 18.3663 29.9289 18.4538 30.1155 18.6901C30.1184 18.6944 30.1228 18.7003 30.1272 18.7046C30.2059 18.7994 30.432 19.024 30.7455 19.3405C34.3184 22.9323 36.5614 25.6536 35.8964 27.2519C35.7009 27.7157 35.1978 28.2669 33.8926 28.2669ZM22.2741 20.9023C23.0076 20.9023 24.0737 21.2057 26.4332 23.4471C27.1959 24.2011 27.7618 24.8223 28.2226 25.3284C29.2901 26.5009 29.5949 26.8086 30.2278 26.8086H33.8955C34.3432 26.8086 34.5241 26.7196 34.5518 26.6876C34.6553 26.4571 34.6232 25.308 29.7116 20.3686C29.328 19.9821 29.0612 19.7036 28.9678 19.5898C28.1555 18.5559 28.4676 17.869 28.9241 17.1413C28.9591 17.083 29.0043 17.0319 29.0539 16.9867C29.6328 16.1715 33.3968 10.7655 33.7745 9.03005C33.7818 8.99651 33.792 8.96297 33.8037 8.93089C33.8547 8.74276 33.8387 8.65672 33.8357 8.64068H33.8343C33.8212 8.64068 33.7045 8.57943 33.3807 8.57943H29.713C29.1516 8.57943 28.9387 8.81276 28.7884 9.16276C28.7126 9.34505 26.8445 13.8046 24.1495 16.7796C23.1957 17.7246 22.6547 18.133 21.8964 18.133C21.243 18.133 20.5824 17.5248 20.5824 16.364V9.18464C20.5824 8.72818 20.5037 8.61297 20.4978 8.60568C20.4949 8.60568 20.4366 8.57943 20.2776 8.57943H14.5099C14.3509 8.57943 14.3072 8.66255 14.3043 8.68443C14.3043 8.75443 14.437 8.91776 14.5784 9.08984C15.0101 9.61922 15.6634 10.4198 15.7612 12.1771L15.7626 17.5569C15.7626 18.2438 15.7626 19.6715 14.3553 19.6715C12.2787 19.6715 9.04261 13.6559 7.60032 9.49818C7.28386 8.62318 7.11615 8.58089 6.63344 8.58089H2.96428C2.43636 8.58089 2.43636 8.66255 2.43636 8.87984C2.43636 9.46464 3.48053 14.0905 8.09615 20.4794C10.8918 24.4461 14.8526 26.8086 18.6939 26.8086C20.5868 26.8086 20.5868 26.5242 20.5868 26.129C20.5868 25.5107 20.5824 24.9755 20.578 24.5146C20.5591 22.5371 20.5518 21.7963 21.0462 21.2976C21.3918 20.9505 21.8409 20.9023 22.2741 20.9023Z" fill="#F8F8F8"/>
</g>
<defs>
<clipPath id="clip0_6_15">
<rect width="35" height="35" fill="white" transform="translate(0.978027 0.194336)"/>
</clipPath>
</defs>
</svg>
