<svg width="35" height="35" viewBox="0 0 35 35" fill="none" xmlns="http://www.w3.org/2000/svg">
<mask id="path-1-inside-1_302_12" fill="white">
<path d="M16.9844 1H18.0156C18.0156 1 17.4486 10.2299 21.1094 13.8906C24.7701 17.5514 34 16.9844 34 16.9844V18.0156C34 18.0156 24.7701 17.4486 21.1094 21.1094C17.4486 24.7701 18.0156 34 18.0156 34H16.9844C16.9844 34 17.5514 24.7701 13.8906 21.1094C10.2299 17.4486 1 18.0156 1 18.0156V16.9844C1 16.9844 10.2299 17.5514 13.8906 13.8906C17.5514 10.2299 16.9844 1 16.9844 1Z"/>
</mask>
<path d="M18.0156 1L19.5128 1.09197L19.6106 -0.5H18.0156V1ZM16.9844 1V-0.5H15.3894L15.4872 1.09197L16.9844 1ZM1 16.9844L1.09197 15.4872L-0.5 15.3894V16.9844H1ZM1 18.0156H-0.5V19.6106L1.09197 19.5128L1 18.0156ZM16.9844 34L15.4872 33.908L15.3894 35.5H16.9844V34ZM18.0156 34V35.5H19.6106L19.5128 33.908L18.0156 34ZM34 18.0156L33.908 19.5128L35.5 19.6106V18.0156H34ZM34 16.9844H35.5V15.3894L33.908 15.4872L34 16.9844ZM18.0156 -0.5H16.9844V2.5H18.0156V-0.5ZM16.9844 1C15.4872 1.09197 15.4872 1.0917 15.4872 1.09146C15.4872 1.09143 15.4872 1.09123 15.4871 1.09116C15.4871 1.09103 15.4871 1.09104 15.4871 1.09118C15.4872 1.09148 15.4872 1.09232 15.4873 1.0937C15.4875 1.09648 15.4877 1.10142 15.4881 1.10849C15.4889 1.12262 15.4901 1.14522 15.4915 1.17584C15.4945 1.23708 15.4984 1.33033 15.5024 1.452C15.5102 1.69549 15.5177 2.05192 15.5158 2.49279C15.5119 3.37704 15.4701 4.5883 15.32 5.9023C15.1693 7.22161 14.9134 8.6079 14.4959 9.85626C14.0742 11.1167 13.5194 12.1405 12.83 12.83L14.9513 14.9513C16.0922 13.8104 16.8393 12.3077 17.3409 10.8079C17.8466 9.2961 18.1354 7.68853 18.3006 6.24277C18.4663 4.79171 18.5115 3.4667 18.5158 2.50595C18.5179 2.02431 18.5097 1.63106 18.5008 1.35549C18.4964 1.21763 18.4918 1.10901 18.4882 1.03326C18.4864 0.995383 18.4848 0.965707 18.4837 0.944689C18.4831 0.934179 18.4826 0.925831 18.4822 0.919703C18.4821 0.916639 18.4819 0.91413 18.4818 0.912182C18.4817 0.911208 18.4817 0.910375 18.4817 0.909682C18.4816 0.909336 18.4816 0.908923 18.4816 0.90875C18.4816 0.908373 18.4816 0.90803 16.9844 1ZM12.83 12.83C12.1405 13.5194 11.1167 14.0742 9.85626 14.4959C8.6079 14.9134 7.22161 15.1693 5.9023 15.32C4.5883 15.4701 3.37704 15.5119 2.49279 15.5158C2.05192 15.5177 1.69549 15.5102 1.452 15.5024C1.33033 15.4984 1.23708 15.4945 1.17584 15.4915C1.14522 15.4901 1.12262 15.4889 1.10849 15.4881C1.10142 15.4877 1.09648 15.4875 1.0937 15.4873C1.09232 15.4872 1.09148 15.4872 1.09118 15.4871C1.09104 15.4871 1.09103 15.4871 1.09116 15.4871C1.09123 15.4872 1.09143 15.4872 1.09146 15.4872C1.0917 15.4872 1.09197 15.4872 1 16.9844C0.90803 18.4816 0.908373 18.4816 0.90875 18.4816C0.908923 18.4816 0.909336 18.4816 0.909682 18.4817C0.910375 18.4817 0.911208 18.4817 0.912182 18.4818C0.91413 18.4819 0.916639 18.4821 0.919703 18.4822C0.925831 18.4826 0.934179 18.4831 0.944689 18.4837C0.965707 18.4848 0.995383 18.4864 1.03326 18.4882C1.10901 18.4918 1.21763 18.4964 1.35549 18.5008C1.63106 18.5097 2.02431 18.5179 2.50595 18.5158C3.4667 18.5115 4.79171 18.4663 6.24277 18.3006C7.68853 18.1354 9.2961 17.8466 10.8079 17.3409C12.3077 16.8393 13.8104 16.0922 14.9513 14.9513L12.83 12.83ZM-0.5 16.9844V18.0156H2.5V16.9844H-0.5ZM1 18.0156C1.09197 19.5128 1.0917 19.5128 1.09146 19.5128C1.09143 19.5128 1.09123 19.5128 1.09116 19.5129C1.09103 19.5129 1.09104 19.5129 1.09118 19.5129C1.09148 19.5128 1.09232 19.5128 1.0937 19.5127C1.09648 19.5125 1.10142 19.5123 1.10849 19.5119C1.12262 19.5111 1.14522 19.5099 1.17584 19.5085C1.23708 19.5055 1.33033 19.5016 1.452 19.4976C1.69549 19.4898 2.05192 19.4823 2.49279 19.4842C3.37704 19.4881 4.5883 19.5299 5.9023 19.68C7.22161 19.8307 8.6079 20.0866 9.85626 20.5041C11.1167 20.9258 12.1405 21.4806 12.83 22.17L14.9513 20.0487C13.8104 18.9078 12.3077 18.1607 10.8079 17.6591C9.2961 17.1534 7.68853 16.8646 6.24277 16.6994C4.79171 16.5337 3.4667 16.4885 2.50595 16.4842C2.02431 16.4821 1.63106 16.4903 1.35549 16.4992C1.21763 16.5036 1.10901 16.5082 1.03326 16.5118C0.995383 16.5136 0.965707 16.5152 0.944689 16.5163C0.934179 16.5169 0.925831 16.5174 0.919703 16.5178C0.916639 16.5179 0.91413 16.5181 0.912182 16.5182C0.911208 16.5183 0.910375 16.5183 0.909682 16.5183C0.909336 16.5184 0.908923 16.5184 0.90875 16.5184C0.908373 16.5184 0.90803 16.5184 1 18.0156ZM12.83 22.17C13.5194 22.8595 14.0742 23.8833 14.4959 25.1437C14.9134 26.3921 15.1693 27.7784 15.32 29.0977C15.4701 30.4117 15.5119 31.623 15.5158 32.5072C15.5177 32.9481 15.5102 33.3045 15.5024 33.548C15.4984 33.6697 15.4945 33.7629 15.4915 33.8242C15.4901 33.8548 15.4889 33.8774 15.4881 33.8915C15.4877 33.8986 15.4875 33.9035 15.4873 33.9063C15.4872 33.9077 15.4872 33.9085 15.4871 33.9088C15.4871 33.909 15.4871 33.909 15.4871 33.9088C15.4872 33.9088 15.4872 33.9086 15.4872 33.9085C15.4872 33.9083 15.4872 33.908 16.9844 34C18.4816 34.092 18.4816 34.0916 18.4816 34.0912C18.4816 34.0911 18.4816 34.0907 18.4817 34.0903C18.4817 34.0896 18.4817 34.0888 18.4818 34.0878C18.4819 34.0859 18.4821 34.0834 18.4822 34.0803C18.4826 34.0742 18.4831 34.0658 18.4837 34.0553C18.4848 34.0343 18.4864 34.0046 18.4882 33.9667C18.4918 33.891 18.4964 33.7824 18.5008 33.6445C18.5097 33.3689 18.5179 32.9757 18.5158 32.4941C18.5115 31.5333 18.4663 30.2083 18.3006 28.7572C18.1354 27.3115 17.8466 25.7039 17.3409 24.1921C16.8393 22.6923 16.0922 21.1896 14.9513 20.0487L12.83 22.17ZM16.9844 35.5H18.0156V32.5H16.9844V35.5ZM18.0156 34C19.5128 33.908 19.5128 33.9083 19.5128 33.9085C19.5128 33.9086 19.5128 33.9088 19.5129 33.9088C19.5129 33.909 19.5129 33.909 19.5129 33.9088C19.5128 33.9085 19.5128 33.9077 19.5127 33.9063C19.5125 33.9035 19.5123 33.8986 19.5119 33.8915C19.5111 33.8774 19.5099 33.8548 19.5085 33.8242C19.5055 33.7629 19.5016 33.6697 19.4976 33.548C19.4898 33.3045 19.4823 32.9481 19.4842 32.5072C19.4881 31.623 19.5299 30.4117 19.68 29.0977C19.8307 27.7784 20.0866 26.3921 20.5041 25.1437C20.9258 23.8833 21.4806 22.8595 22.17 22.17L20.0487 20.0487C18.9078 21.1896 18.1607 22.6923 17.6591 24.1921C17.1534 25.7039 16.8646 27.3115 16.6994 28.7572C16.5337 30.2083 16.4885 31.5333 16.4842 32.4941C16.4821 32.9757 16.4903 33.3689 16.4992 33.6445C16.5036 33.7824 16.5082 33.891 16.5118 33.9667C16.5136 34.0046 16.5152 34.0343 16.5163 34.0553C16.5169 34.0658 16.5174 34.0742 16.5178 34.0803C16.5179 34.0834 16.5181 34.0859 16.5182 34.0878C16.5183 34.0888 16.5183 34.0896 16.5183 34.0903C16.5184 34.0907 16.5184 34.0911 16.5184 34.0912C16.5184 34.0916 16.5184 34.092 18.0156 34ZM22.17 22.17C22.8595 21.4806 23.8833 20.9258 25.1437 20.5041C26.3921 20.0866 27.7784 19.8307 29.0977 19.68C30.4117 19.5299 31.623 19.4881 32.5072 19.4842C32.9481 19.4823 33.3045 19.4898 33.548 19.4976C33.6697 19.5016 33.7629 19.5055 33.8242 19.5085C33.8548 19.5099 33.8774 19.5111 33.8915 19.5119C33.8986 19.5123 33.9035 19.5125 33.9063 19.5127C33.9077 19.5128 33.9085 19.5128 33.9088 19.5129C33.909 19.5129 33.909 19.5129 33.9088 19.5129C33.9088 19.5128 33.9086 19.5128 33.9085 19.5128C33.9083 19.5128 33.908 19.5128 34 18.0156C34.092 16.5184 34.0916 16.5184 34.0912 16.5184C34.0911 16.5184 34.0907 16.5184 34.0903 16.5183C34.0896 16.5183 34.0888 16.5183 34.0878 16.5182C34.0859 16.5181 34.0834 16.5179 34.0803 16.5178C34.0742 16.5174 34.0658 16.5169 34.0553 16.5163C34.0343 16.5152 34.0046 16.5136 33.9667 16.5118C33.891 16.5082 33.7824 16.5036 33.6445 16.4992C33.3689 16.4903 32.9757 16.4821 32.4941 16.4842C31.5333 16.4885 30.2083 16.5337 28.7572 16.6994C27.3115 16.8646 25.7039 17.1534 24.1921 17.6591C22.6923 18.1607 21.1896 18.9078 20.0487 20.0487L22.17 22.17ZM35.5 18.0156V16.9844H32.5V18.0156H35.5ZM34 16.9844C33.908 15.4872 33.9083 15.4872 33.9085 15.4872C33.9086 15.4872 33.9088 15.4872 33.9088 15.4871C33.909 15.4871 33.909 15.4871 33.9088 15.4871C33.9085 15.4872 33.9077 15.4872 33.9063 15.4873C33.9035 15.4875 33.8986 15.4877 33.8915 15.4881C33.8774 15.4889 33.8548 15.4901 33.8242 15.4915C33.7629 15.4945 33.6697 15.4984 33.548 15.5024C33.3045 15.5102 32.9481 15.5177 32.5072 15.5158C31.623 15.5119 30.4117 15.4701 29.0977 15.32C27.7784 15.1693 26.3921 14.9134 25.1437 14.4959C23.8833 14.0742 22.8595 13.5194 22.17 12.83L20.0487 14.9513C21.1896 16.0922 22.6923 16.8393 24.1921 17.3409C25.7039 17.8466 27.3115 18.1354 28.7572 18.3006C30.2083 18.4663 31.5333 18.5115 32.4941 18.5158C32.9757 18.5179 33.3689 18.5097 33.6445 18.5008C33.7824 18.4964 33.891 18.4918 33.9667 18.4882C34.0046 18.4864 34.0343 18.4848 34.0553 18.4837C34.0658 18.4831 34.0742 18.4826 34.0803 18.4822C34.0834 18.4821 34.0859 18.4819 34.0878 18.4818C34.0888 18.4817 34.0896 18.4817 34.0903 18.4817C34.0907 18.4816 34.0911 18.4816 34.0912 18.4816C34.0916 18.4816 34.092 18.4816 34 16.9844ZM22.17 12.83C21.4806 12.1405 20.9258 11.1167 20.5041 9.85626C20.0866 8.6079 19.8307 7.22161 19.68 5.9023C19.5299 4.5883 19.4881 3.37704 19.4842 2.49279C19.4823 2.05192 19.4898 1.69549 19.4976 1.452C19.5016 1.33033 19.5055 1.23708 19.5085 1.17584C19.5099 1.14522 19.5111 1.12262 19.5119 1.10849C19.5123 1.10142 19.5125 1.09648 19.5127 1.0937C19.5128 1.09232 19.5128 1.09148 19.5129 1.09118C19.5129 1.09104 19.5129 1.09103 19.5129 1.09116C19.5128 1.09123 19.5128 1.09143 19.5128 1.09146C19.5128 1.0917 19.5128 1.09197 18.0156 1C16.5184 0.90803 16.5184 0.908373 16.5184 0.90875C16.5184 0.908923 16.5184 0.909336 16.5183 0.909682C16.5183 0.910375 16.5183 0.911208 16.5182 0.912182C16.5181 0.91413 16.5179 0.916639 16.5178 0.919703C16.5174 0.925831 16.5169 0.934179 16.5163 0.944689C16.5152 0.965707 16.5136 0.995383 16.5118 1.03326C16.5082 1.10901 16.5036 1.21763 16.4992 1.35549C16.4903 1.63106 16.4821 2.02431 16.4842 2.50595C16.4885 3.4667 16.5337 4.79171 16.6994 6.24277C16.8646 7.68853 17.1534 9.2961 17.6591 10.8079C18.1607 12.3077 18.9078 13.8104 20.0487 14.9513L22.17 12.83Z" fill="black" mask="url(#path-1-inside-1_302_12)"/>
<rect x="0.75" y="0.75" width="33.5" height="33.5" rx="9.25" stroke="black" stroke-width="1.5"/>
</svg>
