<svg width="35" height="36" viewBox="0 0 35 36" fill="none" xmlns="http://www.w3.org/2000/svg">
<mask id="path-1-inside-1_302_12" fill="white">
<path d="M16.9844 1.80566H18.0156C18.0156 1.80566 17.4486 11.0356 21.1094 14.6963C24.7701 18.357 34 17.79 34 17.79V18.8213C34 18.8213 24.7701 18.2543 21.1094 21.915C17.4486 25.5758 18.0156 34.8057 18.0156 34.8057H16.9844C16.9844 34.8057 17.5514 25.5758 13.8906 21.915C10.2299 18.2543 1 18.8213 1 18.8213V17.79C1 17.79 10.2299 18.357 13.8906 14.6963C17.5514 11.0356 16.9844 1.80566 16.9844 1.80566Z"/>
</mask>
<path d="M18.0156 1.80566L19.5128 1.89763L19.6106 0.305664H18.0156V1.80566ZM16.9844 1.80566V0.305664H15.3894L15.4872 1.89763L16.9844 1.80566ZM1 17.79L1.09197 16.2929L-0.5 16.1951V17.79H1ZM1 18.8213H-0.5V20.4163L1.09197 20.3185L1 18.8213ZM16.9844 34.8057L15.4872 34.7137L15.3894 36.3057H16.9844V34.8057ZM18.0156 34.8057V36.3057H19.6106L19.5128 34.7137L18.0156 34.8057ZM34 18.8213L33.908 20.3185L35.5 20.4163V18.8213H34ZM34 17.79H35.5V16.1951L33.908 16.2929L34 17.79ZM18.0156 0.305664H16.9844V3.30566H18.0156V0.305664ZM16.9844 1.80566C15.4872 1.89763 15.4872 1.89736 15.4872 1.89713C15.4872 1.89709 15.4872 1.89689 15.4871 1.89683C15.4871 1.89669 15.4871 1.8967 15.4871 1.89685C15.4872 1.89714 15.4872 1.89798 15.4873 1.89937C15.4875 1.90214 15.4877 1.90709 15.4881 1.91415C15.4889 1.92829 15.4901 1.95088 15.4915 1.9815C15.4945 2.04275 15.4984 2.136 15.5024 2.25767C15.5102 2.50115 15.5177 2.85759 15.5158 3.29846C15.5119 4.18271 15.4701 5.39396 15.32 6.70797C15.1693 8.02728 14.9134 9.41357 14.4959 10.6619C14.0742 11.9224 13.5194 12.9462 12.83 13.6356L14.9513 15.7569C16.0922 14.616 16.8393 13.1133 17.3409 11.6136C17.8466 10.1018 18.1354 8.49419 18.3006 7.04844C18.4663 5.59738 18.5115 4.27236 18.5158 3.31161C18.5179 2.82998 18.5097 2.43673 18.5008 2.16116C18.4964 2.0233 18.4918 1.91467 18.4882 1.83893C18.4864 1.80105 18.4848 1.77137 18.4837 1.75035C18.4831 1.73984 18.4826 1.7315 18.4822 1.72537C18.4821 1.7223 18.4819 1.71979 18.4818 1.71785C18.4817 1.71687 18.4817 1.71604 18.4817 1.71535C18.4816 1.715 18.4816 1.71459 18.4816 1.71441C18.4816 1.71404 18.4816 1.71369 16.9844 1.80566ZM12.83 13.6356C12.1405 14.3251 11.1167 14.8799 9.85626 15.3015C8.6079 15.7191 7.22161 15.9749 5.9023 16.1256C4.5883 16.2757 3.37704 16.3176 2.49279 16.3214C2.05192 16.3234 1.69549 16.3159 1.452 16.308C1.33033 16.3041 1.23708 16.3001 1.17584 16.2972C1.14522 16.2958 1.12262 16.2946 1.10849 16.2938C1.10142 16.2934 1.09648 16.2931 1.0937 16.293C1.09232 16.2929 1.09148 16.2928 1.09118 16.2928C1.09104 16.2928 1.09103 16.2928 1.09116 16.2928C1.09123 16.2928 1.09143 16.2928 1.09146 16.2928C1.0917 16.2928 1.09197 16.2929 1 17.79C0.90803 19.2872 0.908373 19.2872 0.90875 19.2873C0.908923 19.2873 0.909336 19.2873 0.909682 19.2873C0.910375 19.2874 0.911208 19.2874 0.912182 19.2875C0.91413 19.2876 0.916639 19.2877 0.919703 19.2879C0.925831 19.2883 0.934179 19.2887 0.944689 19.2893C0.965707 19.2905 0.995383 19.292 1.03326 19.2938C1.10901 19.2974 1.21763 19.302 1.35549 19.3065C1.63106 19.3153 2.02431 19.3235 2.50595 19.3214C3.4667 19.3172 4.79171 19.272 6.24277 19.1062C7.68853 18.9411 9.2961 18.6523 10.8079 18.1466C12.3077 17.6449 13.8104 16.8979 14.9513 15.7569L12.83 13.6356ZM-0.5 17.79V18.8213H2.5V17.79H-0.5ZM1 18.8213C1.09197 20.3185 1.0917 20.3185 1.09146 20.3185C1.09143 20.3185 1.09123 20.3185 1.09116 20.3185C1.09103 20.3185 1.09104 20.3185 1.09118 20.3185C1.09148 20.3185 1.09232 20.3184 1.0937 20.3184C1.09648 20.3182 1.10142 20.3179 1.10849 20.3175C1.12262 20.3168 1.14522 20.3156 1.17584 20.3141C1.23708 20.3112 1.33033 20.3072 1.452 20.3033C1.69549 20.2955 2.05192 20.2879 2.49279 20.2899C3.37704 20.2938 4.5883 20.3356 5.9023 20.4857C7.22161 20.6364 8.6079 20.8922 9.85626 21.3098C11.1167 21.7314 12.1405 22.2863 12.83 22.9757L14.9513 20.8544C13.8104 19.7135 12.3077 18.9664 10.8079 18.4647C9.2961 17.959 7.68853 17.6702 6.24277 17.5051C4.79171 17.3393 3.4667 17.2941 2.50595 17.2899C2.02431 17.2878 1.63106 17.296 1.35549 17.3049C1.21763 17.3093 1.10901 17.3139 1.03326 17.3175C0.995383 17.3193 0.965707 17.3209 0.944689 17.322C0.934179 17.3226 0.925831 17.3231 0.919703 17.3234C0.916639 17.3236 0.91413 17.3237 0.912182 17.3239C0.911208 17.3239 0.910375 17.324 0.909682 17.324C0.909336 17.324 0.908923 17.3241 0.90875 17.3241C0.908373 17.3241 0.90803 17.3241 1 18.8213ZM12.83 22.9757C13.5194 23.6651 14.0742 24.6889 14.4959 25.9494C14.9134 27.1978 15.1693 28.5841 15.32 29.9034C15.4701 31.2174 15.5119 32.4286 15.5158 33.3129C15.5177 33.7537 15.5102 34.1102 15.5024 34.3537C15.4984 34.4753 15.4945 34.5686 15.4915 34.6298C15.4901 34.6604 15.4889 34.683 15.4881 34.6972C15.4877 34.7042 15.4875 34.7092 15.4873 34.712C15.4872 34.7133 15.4872 34.7142 15.4871 34.7145C15.4871 34.7146 15.4871 34.7146 15.4871 34.7145C15.4872 34.7144 15.4872 34.7142 15.4872 34.7142C15.4872 34.714 15.4872 34.7137 16.9844 34.8057C18.4816 34.8976 18.4816 34.8973 18.4816 34.8969C18.4816 34.8967 18.4816 34.8963 18.4817 34.896C18.4817 34.8953 18.4817 34.8945 18.4818 34.8935C18.4819 34.8915 18.4821 34.889 18.4822 34.886C18.4826 34.8798 18.4831 34.8715 18.4837 34.861C18.4848 34.84 18.4864 34.8103 18.4882 34.7724C18.4918 34.6967 18.4964 34.588 18.5008 34.4502C18.5097 34.1746 18.5179 33.7814 18.5158 33.2997C18.5115 32.339 18.4663 31.014 18.3006 29.5629C18.1354 28.1171 17.8466 26.5096 17.3409 24.9977C16.8393 23.498 16.0922 21.9953 14.9513 20.8544L12.83 22.9757ZM16.9844 36.3057H18.0156V33.3057H16.9844V36.3057ZM18.0156 34.8057C19.5128 34.7137 19.5128 34.714 19.5128 34.7142C19.5128 34.7142 19.5128 34.7144 19.5129 34.7145C19.5129 34.7146 19.5129 34.7146 19.5129 34.7145C19.5128 34.7142 19.5128 34.7133 19.5127 34.712C19.5125 34.7092 19.5123 34.7042 19.5119 34.6972C19.5111 34.683 19.5099 34.6604 19.5085 34.6298C19.5055 34.5686 19.5016 34.4753 19.4976 34.3537C19.4898 34.1102 19.4823 33.7537 19.4842 33.3129C19.4881 32.4286 19.5299 31.2174 19.68 29.9034C19.8307 28.5841 20.0866 27.1978 20.5041 25.9494C20.9258 24.6889 21.4806 23.6651 22.17 22.9757L20.0487 20.8544C18.9078 21.9953 18.1607 23.498 17.6591 24.9977C17.1534 26.5096 16.8646 28.1171 16.6994 29.5629C16.5337 31.014 16.4885 32.339 16.4842 33.2997C16.4821 33.7814 16.4903 34.1746 16.4992 34.4502C16.5036 34.588 16.5082 34.6967 16.5118 34.7724C16.5136 34.8103 16.5152 34.84 16.5163 34.861C16.5169 34.8715 16.5174 34.8798 16.5178 34.886C16.5179 34.889 16.5181 34.8915 16.5182 34.8935C16.5183 34.8945 16.5183 34.8953 16.5183 34.896C16.5184 34.8963 16.5184 34.8967 16.5184 34.8969C16.5184 34.8973 16.5184 34.8976 18.0156 34.8057ZM22.17 22.9757C22.8595 22.2863 23.8833 21.7314 25.1437 21.3098C26.3921 20.8922 27.7784 20.6364 29.0977 20.4857C30.4117 20.3356 31.623 20.2938 32.5072 20.2899C32.9481 20.2879 33.3045 20.2955 33.548 20.3033C33.6697 20.3072 33.7629 20.3112 33.8242 20.3141C33.8548 20.3156 33.8774 20.3168 33.8915 20.3175C33.8986 20.3179 33.9035 20.3182 33.9063 20.3184C33.9077 20.3184 33.9085 20.3185 33.9088 20.3185C33.909 20.3185 33.909 20.3185 33.9088 20.3185C33.9088 20.3185 33.9086 20.3185 33.9085 20.3185C33.9083 20.3185 33.908 20.3185 34 18.8213C34.092 17.3241 34.0916 17.3241 34.0912 17.3241C34.0911 17.3241 34.0907 17.324 34.0903 17.324C34.0896 17.324 34.0888 17.3239 34.0878 17.3239C34.0859 17.3237 34.0834 17.3236 34.0803 17.3234C34.0742 17.3231 34.0658 17.3226 34.0553 17.322C34.0343 17.3209 34.0046 17.3193 33.9667 17.3175C33.891 17.3139 33.7824 17.3093 33.6445 17.3049C33.3689 17.296 32.9757 17.2878 32.4941 17.2899C31.5333 17.2941 30.2083 17.3393 28.7572 17.5051C27.3115 17.6702 25.7039 17.959 24.1921 18.4647C22.6923 18.9664 21.1896 19.7135 20.0487 20.8544L22.17 22.9757ZM35.5 18.8213V17.79H32.5V18.8213H35.5ZM34 17.79C33.908 16.2929 33.9083 16.2928 33.9085 16.2928C33.9086 16.2928 33.9088 16.2928 33.9088 16.2928C33.909 16.2928 33.909 16.2928 33.9088 16.2928C33.9085 16.2928 33.9077 16.2929 33.9063 16.293C33.9035 16.2931 33.8986 16.2934 33.8915 16.2938C33.8774 16.2946 33.8548 16.2958 33.8242 16.2972C33.7629 16.3001 33.6697 16.3041 33.548 16.308C33.3045 16.3159 32.9481 16.3234 32.5072 16.3214C31.623 16.3176 30.4117 16.2757 29.0977 16.1256C27.7784 15.9749 26.3921 15.7191 25.1437 15.3015C23.8833 14.8799 22.8595 14.3251 22.17 13.6356L20.0487 15.7569C21.1896 16.8979 22.6923 17.6449 24.1921 18.1466C25.7039 18.6523 27.3115 18.9411 28.7572 19.1062C30.2083 19.272 31.5333 19.3172 32.4941 19.3214C32.9757 19.3235 33.3689 19.3153 33.6445 19.3065C33.7824 19.302 33.891 19.2974 33.9667 19.2938C34.0046 19.292 34.0343 19.2905 34.0553 19.2893C34.0658 19.2887 34.0742 19.2883 34.0803 19.2879C34.0834 19.2877 34.0859 19.2876 34.0878 19.2875C34.0888 19.2874 34.0896 19.2874 34.0903 19.2873C34.0907 19.2873 34.0911 19.2873 34.0912 19.2873C34.0916 19.2872 34.092 19.2872 34 17.79ZM22.17 13.6356C21.4806 12.9462 20.9258 11.9224 20.5041 10.6619C20.0866 9.41357 19.8307 8.02728 19.68 6.70797C19.5299 5.39396 19.4881 4.18271 19.4842 3.29846C19.4823 2.85759 19.4898 2.50115 19.4976 2.25767C19.5016 2.136 19.5055 2.04275 19.5085 1.9815C19.5099 1.95088 19.5111 1.92829 19.5119 1.91415C19.5123 1.90709 19.5125 1.90214 19.5127 1.89937C19.5128 1.89798 19.5128 1.89714 19.5129 1.89685C19.5129 1.8967 19.5129 1.89669 19.5129 1.89683C19.5128 1.89689 19.5128 1.89709 19.5128 1.89713C19.5128 1.89736 19.5128 1.89763 18.0156 1.80566C16.5184 1.71369 16.5184 1.71404 16.5184 1.71441C16.5184 1.71459 16.5184 1.715 16.5183 1.71535C16.5183 1.71604 16.5183 1.71687 16.5182 1.71785C16.5181 1.71979 16.5179 1.7223 16.5178 1.72537C16.5174 1.7315 16.5169 1.73984 16.5163 1.75035C16.5152 1.77137 16.5136 1.80105 16.5118 1.83893C16.5082 1.91467 16.5036 2.0233 16.4992 2.16116C16.4903 2.43673 16.4821 2.82998 16.4842 3.31161C16.4885 4.27236 16.5337 5.59738 16.6994 7.04844C16.8646 8.49419 17.1534 10.1018 17.6591 11.6136C18.1607 13.1133 18.9078 14.616 20.0487 15.7569L22.17 13.6356Z" fill="black" mask="url(#path-1-inside-1_302_12)"/>
<rect x="0.75" y="1.55566" width="33.5" height="33.5" rx="9.25" stroke="black" stroke-width="1.5"/>
</svg>
